# xmcd CD Database Entry
#
# Track frame offsets:
# 150
# 22094
# 46871
# 73203
# 95668
# 117093
# 140526
# 158946
# 176739
#
# Disc length: 2784 seconds
#
# Revision: 5
# Processed by: cddbd v1.4PL0 Copyright (c) Steve Scherf et al.
# Submitted via: tcd 2.0b
#
DISCID=7f0ade09
DTITLE=Fabrizio De Andre' - Anime Salve
DYEAR=1900
DGENRE=
TTITLE0=Princesa
TTITLE1=Khorakhene' [a forza di essere vento]
TTITLE2=Anime salve
TTITLE3=Dolcenera
TTITLE4=Le acciughe fanno il pallone
TTITLE5=Disamistade
TTITLE6=A cùmba
TTITLE7=Ho visto Nina volare
TTITLE8=Smisurata preghiera
EXTD=
EXTT0=
EXTT1=
EXTT2=
EXTT3=
EXTT4=
EXTT5=
EXTT6=
EXTT7=
EXTT8=
PLAYORDER=
